<?xml version="1.0" encoding="UTF-8"?>
<!-- FILE: public/novara-logo.svg -->
<!-- Use as: <img src="/novara-logo.svg" alt="Novara Quickbuy" /> -->
<svg width="220" height="56" viewBox="0 0 220 56" fill="none" xmlns="http://www.w3.org/2000/svg">

  <!-- ── Icon mark (56x56 grid scaled to fit) ── -->
  <g transform="translate(0, 0) scale(0.56)">
    <!-- Cart handle + body -->
    <path d="M10 22 L18 22 Q21 22 22 25 L29 58 Q30 61 33 61 L76 61 Q79 61 80 58 L87 34 Q88 31 85 31 L26 31"
      stroke="#16A34A" stroke-width="5.5" stroke-linecap="round" stroke-linejoin="round" fill="none"/>
    <!-- Wheels -->
    <circle cx="39" cy="73" r="6" stroke="#16A34A" stroke-width="4" fill="none"/>
    <circle cx="66" cy="73" r="6" stroke="#16A34A" stroke-width="4" fill="none"/>
    <!-- Large chat bubble -->
    <ellipse cx="44" cy="46" rx="16" ry="11" fill="#14532D"/>
    <path d="M37 55 L33 63 L45 56" fill="#14532D"/>
    <circle cx="38" cy="46" r="2.2" fill="#FFFFFF"/>
    <circle cx="44" cy="46" r="2.2" fill="#FFFFFF"/>
    <circle cx="50" cy="46" r="2.2" fill="#FFFFFF"/>
    <!-- Small gold bubble -->
    <ellipse cx="61" cy="53" rx="12" ry="8.5" fill="#F59E0B"/>
    <path d="M54 59 L51 66 L62 60" fill="#F59E0B"/>
    <!-- Gold star -->
    <path d="M80 10 L82.5 17.5 L90.5 17.5 L84.2 22.2 L86.5 30 L80 25.3 L73.5 30 L75.8 22.2 L69.5 17.5 L77.5 17.5 Z"
      fill="#F59E0B"/>
  </g>

  <!-- ── Wordmark text ── -->
  <text x="64" y="34"
    font-family="'Plus Jakarta Sans', system-ui, sans-serif"
    font-size="28"
    font-weight="800"
    fill="#14532D"
    letter-spacing="-0.8">novara</text>

  <text x="65" y="48"
    font-family="'Plus Jakarta Sans', system-ui, sans-serif"
    font-size="9"
    font-weight="700"
    fill="#16A34A"
    letter-spacing="2.5">QUICKBUY</text>

</svg>
